<?xml version="1.0" encoding="UTF-8" standalone="no"?>
<!-- Created with Inkscape (http://www.inkscape.org/) -->

<svg
   xmlns:dc="http://purl.org/dc/elements/1.1/"
   xmlns:cc="http://creativecommons.org/ns#"
   xmlns:rdf="http://www.w3.org/1999/02/22-rdf-syntax-ns#"
   xmlns:svg="http://www.w3.org/2000/svg"
   xmlns="http://www.w3.org/2000/svg"
   xmlns:sodipodi="http://sodipodi.sourceforge.net/DTD/sodipodi-0.dtd"
   xmlns:inkscape="http://www.inkscape.org/namespaces/inkscape"
   width="500"
   height="100"
   viewBox="0 0 500 100"
   id="svg2"
   version="1.1"
   inkscape:version="0.91 r13725"
   sodipodi:docname="clickbait_title.svg"
   inkscape:export-filename="/home/gmoe/Documents/development/ClickBait/assets/clickbait.png"
   inkscape:export-xdpi="180"
   inkscape:export-ydpi="180">
  <defs
     id="defs4">
    <clipPath
       clipPathUnits="userSpaceOnUse"
       id="clipPath4254">
      <rect
         ry="14.821428"
         y="952.36218"
         x="0"
         height="100.00002"
         width="100"
         id="rect4256"
         style="color:#000000;clip-rule:nonzero;display:inline;overflow:visible;visibility:visible;opacity:1;isolation:auto;mix-blend-mode:normal;color-interpolation:sRGB;color-interpolation-filters:linearRGB;solid-color:#000000;solid-opacity:1;fill:#ff0000;fill-opacity:1;fill-rule:nonzero;stroke:none;stroke-width:32;stroke-linecap:round;stroke-linejoin:miter;stroke-miterlimit:4;stroke-dasharray:none;stroke-dashoffset:0;stroke-opacity:1;color-rendering:auto;image-rendering:auto;shape-rendering:auto;text-rendering:auto;enable-background:accumulate" />
    </clipPath>
  </defs>
  <sodipodi:namedview
     id="base"
     pagecolor="#ffffff"
     bordercolor="#666666"
     borderopacity="1.0"
     inkscape:pageopacity="0.0"
     inkscape:pageshadow="2"
     inkscape:zoom="1.4"
     inkscape:cx="197.25555"
     inkscape:cy="-35.026661"
     inkscape:document-units="px"
     inkscape:current-layer="layer1"
     showgrid="false"
     units="px"
     inkscape:snap-page="true"
     inkscape:window-width="1600"
     inkscape:window-height="1139"
     inkscape:window-x="1440"
     inkscape:window-y="27"
     inkscape:window-maximized="1"
     inkscape:snap-bbox="false"
     inkscape:bbox-nodes="true" />
  <metadata
     id="metadata7">
    <rdf:RDF>
      <cc:Work
         rdf:about="">
        <dc:format>image/svg+xml</dc:format>
        <dc:type
           rdf:resource="http://purl.org/dc/dcmitype/StillImage" />
        <dc:title></dc:title>
      </cc:Work>
    </rdf:RDF>
  </metadata>
  <g
     inkscape:label="Layer 1"
     inkscape:groupmode="layer"
     id="layer1"
     transform="translate(0,-952.36216)">
    <g
       id="g4273"
       transform="matrix(0.95943672,0,0,1.0006637,-0.03182953,-0.6653167)">
      <rect
         style="color:#000000;clip-rule:nonzero;display:inline;overflow:visible;visibility:visible;opacity:1;isolation:auto;mix-blend-mode:normal;color-interpolation:sRGB;color-interpolation-filters:linearRGB;solid-color:#000000;solid-opacity:1;fill:#ff0000;fill-opacity:1;fill-rule:nonzero;stroke:#000000;stroke-width:7.40249252;stroke-linecap:round;stroke-linejoin:miter;stroke-miterlimit:4;stroke-dasharray:none;stroke-dashoffset:0;stroke-opacity:1;color-rendering:auto;image-rendering:auto;shape-rendering:auto;text-rendering:auto;enable-background:accumulate"
         id="rect4192-5"
         width="92.531158"
         height="92.531181"
         x="3.7344215"
         y="956.09662"
         ry="13.714438" />
      <g
         transform="matrix(0.92531157,0,0,0.92531157,3.7344215,74.86486)"
         clip-path="url(#clipPath4254)"
         id="g4179">
        <rect
           clip-path="none"
           style="color:#000000;clip-rule:nonzero;display:inline;overflow:visible;visibility:visible;opacity:1;isolation:auto;mix-blend-mode:normal;color-interpolation:sRGB;color-interpolation-filters:linearRGB;solid-color:#000000;solid-opacity:1;fill:#000000;fill-opacity:1;fill-rule:nonzero;stroke:none;stroke-width:32;stroke-linecap:round;stroke-linejoin:miter;stroke-miterlimit:4;stroke-dasharray:none;stroke-dashoffset:0;stroke-opacity:1;color-rendering:auto;image-rendering:auto;shape-rendering:auto;text-rendering:auto;enable-background:accumulate"
           id="rect4156"
           width="100"
           height="100"
           x="0"
           y="952.36218" />
        <path
           style="fill:#ffffff"
           d="m 108.74662,1004.6439 -3.12555,-0.7794 c -5.628814,-1.4017 -10.238971,-2.3235 -15.296061,-3.0612 -14.991666,-2.18676 -29.537718,-1.63286 -41.703132,1.5901 -3.123828,0.8276 -7.365562,2.3441 -7.967311,2.8481 -0.376213,0.3151 -0.476258,0.831 -0.246789,1.2644 0.111363,0.2105 2.97478,2.7435 6.586872,5.8253 8.12774,6.9344 13.405428,7.0903 13.551646,7.5352 -10.736529,1.2546 -15.958681,-0.1469 -19.865315,-1.2455 -3.464185,-0.8002 -5.687706,-1.5217 -5.921012,-1.3344 -0.502325,0.403 -0.43424,0.5482 1.256752,2.706 8.435479,10.7638 19.869016,19.4515 34.311792,26.0703 5.465456,2.5046 10.362139,4.3517 17.460837,6.5876 0.43533,0.1367 2.299367,0.6662 4.141457,1.1758 l 19.598954,3.0692 0.30486,-25.4115 z m -42.857594,3.6582 c 0.154121,0.04 0.33218,0.095 0.551865,0.1665 0.795807,0.2592 1.094107,0.4252 1.544191,0.8539 2.563085,2.4408 0.902109,6.8672 -2.615998,6.972 0.357543,-2.5948 -0.61555,-4.1816 -3.576775,-5.7827 0.55301,-1.5579 1.840365,-2.0718 2.815484,-2.2284 0.565707,-0.091 0.818872,-0.102 1.281233,0.019 z"
           id="path4153"
           inkscape:connector-curvature="0"
           sodipodi:nodetypes="ccssscscccccccccccccccccc" />
        <path
           style="fill:#ffffff"
           d="m 22.786428,1013.0258 c -1.919865,0.2123 -3.902174,-0.2012 -5.603621,-1.1692 -4.182706,-2.3796 -11.5104702,-10.0406 -9.5054972,-14.49374 0.977805,-2.1717 1.84083,-3.0053 6.0993902,-5.89131 1.63553,-1.10837 3.693125,-2.50227 4.572432,-3.09754 0.879308,-0.59526 1.56603,-1.00142 1.526052,-0.90255 -0.996309,2.46387 -5.57155,13.25214 -5.610729,13.22974 -0.0303,-0.018 -0.369172,-0.76244 -0.753427,-1.65624 -0.384229,-0.8938 -0.735927,-1.6463 -0.781507,-1.6722 -0.154696,-0.088 -2.118248,0.5532 -2.39222,1.117 -0.149914,0.3084 -0.06757,1.3704 -0.06757,1.3704 -0.146671,0.83254 1.351403,3.19324 2.073925,4.13914 1.20084,1.2489 3.464338,3.4488 4.95489,4.2968 1.494727,0.8503 4.453565,1.2872 6.171428,0.8202 2.84149,-0.3946 4.189961,-2.9048 5.401162,-5.4897 2.278854,-5.04804 3.019807,-10.87254 3.700605,-16.19835 0.680795,-5.3258 5.278077,-11.80802 5.278077,-11.80802 l -0.265232,-0.49078 c -0.396924,-0.73445 -0.612041,-2.01278 -0.473543,-2.81399 0.148958,-0.86169 0.860136,-2.13887 1.503468,-2.70003 0.875245,-0.76342 1.495077,-0.99288 2.758372,-1.02116 l 1.121293,-0.0251 1.389821,-1.90585 c 9.800072,-13.43887 12.181962,-21.97863 23.245926,-26.70606 5.402908,-2.30858 20.699254,-3.2357 26.097407,-3.54798 l 1.008882,-0.0584 0.487828,1.77536 0.487823,1.77535 -0.339043,0.008 c -4.192379,0.0933 -20.576882,1.57117 -24.175209,2.87929 -11.841239,4.30473 -13.180637,11.72597 -23.992698,26.5602 -1.016893,1.39517 -1.023002,1.40862 -0.82377,1.81331 1.096295,2.22689 0.101748,5.02457 -2.184455,6.14484 -0.466906,0.22889 -0.789192,0.28986 -1.621315,0.30695 l -1.038546,0.0214 -0.328446,0.53854 c -2.631763,4.31527 -5.650017,10.77754 -7.023999,21.84828 -0.394109,3.1755 -3.966764,8.3535 -4.307399,8.9001 -0.688831,1.1052 -1.903931,2.2534 -3.114566,2.9432 -0.873548,0.4977 -2.552699,1.0582 -3.475965,1.1605 z"
           id="path4147"
           inkscape:connector-curvature="0"
           sodipodi:nodetypes="csssssccccccsccscsscscsssccccssscccsscccc" />
      </g>
    </g>
    <text
       xml:space="preserve"
       style="font-style:normal;font-weight:normal;font-size:72.26334381px;line-height:125%;font-family:sans-serif;text-align:center;letter-spacing:0px;word-spacing:0px;text-anchor:middle;fill:#000000;fill-opacity:1;stroke:none;stroke-width:1px;stroke-linecap:butt;stroke-linejoin:miter;stroke-opacity:1"
       x="502.15237"
       y="1029.1963"
       id="text4883"
       sodipodi:linespacing="125%"><tspan
         sodipodi:role="line"
         id="tspan4885"
         x="502.15237"
         y="1029.1963"
         style="font-style:normal;font-variant:normal;font-weight:normal;font-stretch:normal;font-family:'Bowlby One';-inkscape-font-specification:'Bowlby One';text-align:end;letter-spacing:0px;text-anchor:end">ClickBait</tspan></text>
  </g>
</svg>
